<?xml version="1.0" encoding="UTF-8"?>
<svg version="1.1" viewBox="0 0 2048 401" width="510" height="100" xmlns="http://www.w3.org/2000/svg">
<path transform="translate(1151,114)" d="m0 0h68l43 1 16 3 12 5 10 9 8 9 3 7 2 8 2 6v14l-3 7-2 9-9 11-12 10-10 5-7 3 1 7 6 9 9 10 12 16 13 15 3 5v4h-29l-13-2-6-3-7-8-12-16-16-21-11-12-4-2h-25l-2 37v23l-3 2-37 1-1-1v-164zm43 31-1 1-1 16v28l3 2 6 1h38l16-2 9-3 5-4 3-8v-17l-4-6-7-6-2-1-16-1z" fill="#FEFEFE"/>
<path transform="translate(1591,112)" d="m0 0h40l13 2 18 6 12 6 11 9 7 8 4 8 1 3v11l-2 1h-29l-7-2-9-11-5-4-10-4-14-3h-18l-14 3-10 5-3 4-1 12 2 7 4 4 4 1 15 1 8 3 7 1 18 1 11 2 10 3 12 1 17 7 8 6 8 9 2 4 1 9v17l-2 10-7 12-7 7-14 9-18 6-8 2h-58l-5-2v-2l-11-1-16-8-10-6-7-7-6-12-2-6v-10h38l14 16 5 4 18 4 7 1h18l18-4 6-4 6-7 2-7-2-7-5-4-10-4-15-3-32-3-28-6-19-8-11-9-6-9-3-9-1-7v-8l2-10 4-8 9-10 9-8 10-5 19-6z" fill="#FEFEFE"/>
<path transform="translate(1350,114)" d="m0 0h125l19 1 9 2v28l-1 1-108 1v36l96 1 5 3 2 6v10l-2 11-3 3-89 1-7 2-2 6-1 28 109 1 1 1v27l-7 3h-148l-1-2 1-7 1-21 3-5 2-7 1-20 4-15v-13l-4-20-2-24-4-7-1-20-2-4 1-5z" fill="#FEFEFE"/>
<path transform="translate(958,114)" d="m0 0h134l21 1 1 1v14l-1 16-106 1-4 7 2 15 3 16 30-1h67l2 1v20l-1 10-3 2h-96l-1 9-2 12v11l4 4 26 1h69l11 1v30l-10 1-146-1v-10l4-14 1-24 5-2 1-26v-15l-1-26-5-5-1-22-4-11z" fill="#FEFEFE"/>
<path transform="translate(577,114)" d="m0 0h49l84 1 1 9-1 21-1 1-104 1-4 6v10l3 5 2 16 98 1v28l-2 3-13 1h-84v11l-2 10-2 2v7l3 5 2 1 15 1 88 1 1 1 2 11v16l-1 2-7 1h-116l-19 1h-11l-1-1v-8l7-43 2-14v-40l-7-48-3-9v-8l1-1z" fill="#FEFEFE"/>
<path transform="translate(232,112)" d="m0 0h36l13 2 17 5 14 7 11 9 12 12 7 11 4 10 1 7v8l-1 1h-36l-7-14-8-10-14-9-11-4-10-1h-18l-12 2-16 8-6 4-6 9-4 11-3 17v8l3 18 5 12 7 8 10 6 10 4 12 2h21l12-2 12-6 9-8 10-13 5-8h35l1 1v9l-3 10-6 12-11 12-9 9-10 7-13 5-17 5h-53l-5-2-4-2-12-3-12-6-16-13-12-15-8-16-3-10-1-9v-20l2-15 6-16 9-13 9-10 7-7 14-9 13-5 13-4z" fill="#FEFEFE"/>
<path transform="translate(901,113)" d="m0 0 35 1-1 8-11 23-9 20-12 25-8 17-11 25-8 16-10 21-7 14-3 3-3 1h-33l-9-2-6-7-4-10-4-6-18-41-14-28-9-20-7-15-15-30-2-6v-8l33 1 8 2 3 3 6 16 5 12 4 9 9 20 4 6 4 10 5 12 3 10 4 5 2 7 3 3 3 9 5 6 4-2 9-16 6-15 11-23 15-36 12-26 5-10 3-3z" fill="#FEFEFE"/>
<path transform="translate(1743,114)" d="m0 0h129l23 1v34l-2 1h-65v41l-1 94-2 1h-20l-20-1-1-3v-132l-61 1-5-2v-32l3-2z" fill="#FEFEFE"/>
<path transform="translate(385,115)" d="m0 0h29l8 2 1 21 1 112 4 1h95l10 1 1 1v32l-4 2-64-1h-82l-3-3-1-5v-112l1-47z" fill="#FEFEFE"/>
</svg>
